<svg width="120" height="40" viewBox="0 0 120 40" fill="none" xmlns="http://www.w3.org/2000/svg">
  <g clip-path="url(#clip0_4_739)">
    <path d="M19.9999 13.3333C19.9999 11.4667 18.9333 9.73333 17.3333 8.8L14.6666 7.33333L11.9999 8.8C10.3999 9.73333 9.33325 11.4667 9.33325 13.3333V18.6667C9.33325 20.5333 10.3999 22.2667 11.9999 23.2L14.6666 24.6667L17.3333 23.2C18.9333 22.2667 19.9999 20.5333 19.9999 18.6667V13.3333Z" fill="#4CAF4F"/>
    <path d="M18.6667 26.6667C18.6667 24.8 17.6 23.0667 16 22.1333L13.3334 20.6667L10.6667 22.1333C9.06669 23.0667 8.00002 24.8 8.00002 26.6667V32C8.00002 33.8667 9.06669 35.6 10.6667 36.5333L13.3334 38L16 36.5333C17.6 35.6 18.6667 33.8667 18.6667 32V26.6667Z" fill="#4CAF4F"/>
    <path d="M31.3333 26.6667C31.3333 24.8 30.2667 23.0667 28.6667 22.1333L26 20.6667L23.3333 22.1333C21.7333 23.0667 20.6667 24.8 20.6667 26.6667V32C20.6667 33.8667 21.7333 35.6 23.3333 36.5333L26 38L28.6667 36.5333C30.2667 35.6 31.3333 33.8667 31.3333 32V26.6667Z" fill="#4CAF4F"/>
    <path d="M31.3333 13.3333C31.3333 11.4667 30.2667 9.73333 28.6667 8.8L26 7.33333L23.3333 8.8C21.7333 9.73333 20.6667 11.4667 20.6667 13.3333V18.6667C20.6667 20.5333 21.7333 22.2667 23.3333 23.2L26 24.6667L28.6667 23.2C30.2667 22.2667 31.3333 20.5333 31.3333 18.6667V13.3333Z" fill="#4CAF4F"/>
  </g>
  <path d="M45.3 15.65H49.61V29H53.11V15.65H57.42V12.59H45.3V15.65ZM66.4559 25.94V21.45H73.0659V18.49H66.4559V15.65H73.8459V12.59H62.9559V29H74.0259V25.94H66.4559ZM84.6888 29.17C86.3288 29.17 87.6788 28.85 88.7388 28.21C89.7988 27.57 90.6088 26.7 91.1688 25.6C91.7288 24.5 92.0088 23.28 92.0088 21.94V12.59H88.5088V21.94C88.5088 23.24 88.1588 24.22 87.4588 24.88C86.7588 25.52 85.8388 25.84 84.6988 25.84C83.5388 25.84 82.6188 25.52 81.9388 24.88C81.2588 24.22 80.9188 23.24 80.9188 21.94V12.59H77.3888V21.94C77.3888 23.28 77.6688 24.5 78.2288 25.6C78.7888 26.7 79.5988 27.57 80.6588 28.21C81.7188 28.85 83.0688 29.17 84.6888 29.17ZM110.152 29H110.242L114.262 12.59H110.692L108.092 23.5L105.132 12.59H102.082L99.1216 23.5L96.4916 12.59H92.9016L96.9416 29H97.0316L100.622 16.7L104.192 29H110.152Z" fill="#263238"/>
  <defs>
    <clipPath id="clip0_4_739">
      <rect width="40" height="40" fill="white"/>
    </clipPath>
  </defs>
</svg>